<?xml version="1.0" encoding="UTF-8"?>
<svg version="1.1" xmlns="http://www.w3.org/2000/svg" width="186" height="116">
<path d="M0 0 C5.74339018 3.028333 7.08731977 6.96023621 9.17297363 12.93203735 C10.51355513 17.90510004 10.49477858 22.6721438 10.390625 27.79296875 C10.38496521 28.86501053 10.37930542 29.93705231 10.37347412 31.0415802 C10.35130514 34.42403188 10.30114562 37.80537525 10.25 41.1875 C10.22990983 43.49803144 10.21166351 45.8085797 10.1953125 48.11914062 C10.15150466 53.74646397 10.08479134 59.37315277 10 65 C11.45853394 64.78065796 11.45853394 64.78065796 12.9465332 64.55688477 C16.60458899 64.00763254 20.26326098 63.46258041 23.92211914 62.91870117 C25.49617958 62.6841435 27.07007784 62.44849441 28.64379883 62.21166992 C41.94975934 60.21048731 54.92790953 58.79898736 68.4152832 58.75976562 C70.43156746 58.75002865 72.44684223 58.71886674 74.46289062 58.6875 C94.26355395 58.60958298 94.26355395 58.60958298 101.6875 64.5625 C104.1260889 67.13290452 104.85200806 68.13319008 105.4375 71.5625 C104.38064222 79.86638259 97.18680694 86.8088823 91 92 C70.65362807 107.63774996 44.06392714 118.81738039 18 116 C9.42795014 113.67795105 4.02027265 107.93441946 -0.50390625 100.54296875 C-3.35850136 95.24854876 -4.40724967 90.95272668 -5 85 C-8.66718701 85.87282793 -12.33370451 86.74843504 -16 87.625 C-17.11818115 87.89207764 -18.2363623 88.15915527 -19.38842773 88.43432617 C-25.17542985 89.82215192 -30.95511431 91.23246217 -36.72265625 92.69921875 C-38.32077148 93.10503174 -38.32077148 93.10503174 -39.95117188 93.51904297 C-41.97828912 94.0360024 -44.00439129 94.55696388 -46.02929688 95.08251953 C-67.03703759 100.43636336 -67.03703759 100.43636336 -75.4375 96.3125 C-79.64459177 92.5158562 -81.49372079 88.98380461 -81.8125 83.3125 C-81.20297762 59.80613692 -53.62469498 32.79882689 -37.5546875 17.23828125 C-32.45771324 12.47432417 -26.95434456 8.63107317 -21 5 C-20.12601563 4.4534375 -19.25203125 3.906875 -18.3515625 3.34375 C-12.36416519 -0.05603396 -6.84231874 -1.28226131 0 0 Z M-34 37 C-45.74384503 48.86783736 -58.34667598 63.03501298 -64 79 C-63.67 79.99 -63.34 80.98 -63 82 C-62.00895264 81.74831055 -61.01790527 81.49662109 -59.99682617 81.23730469 C-56.21980091 80.27918271 -52.44149678 79.32618405 -48.6628418 78.37451172 C-47.04629331 77.96666765 -45.43006683 77.5575445 -43.81420898 77.14697266 C-41.45385935 76.5474954 -39.09227788 75.95307315 -36.73046875 75.359375 C-36.04107712 75.18315613 -35.35168549 75.00693726 -34.6414032 74.82537842 C-25.80860485 72.61648322 -16.9286452 70.87971478 -8 69 C-8 51.84 -8 34.68 -8 17 C-16.37734842 17 -28.22338473 31.29971126 -34 37 Z M34.625 76.3125 C33.52381836 76.43020752 32.42263672 76.54791504 31.28808594 76.66918945 C24.02238133 77.53927038 17.05510662 79.06920353 10 81 C10.65018092 89.12726149 14.14529762 93.46818013 19.92578125 98.80078125 C25.32350468 101.92149894 31.03057608 100.99108774 36.8125 99.5625 C37.54460693 99.38420654 38.27671387 99.20591309 39.03100586 99.0222168 C51.01174192 95.8911051 62.05573867 90.22875775 72.875 84.3125 C73.53508057 83.95647705 74.19516113 83.6004541 74.87524414 83.23364258 C78.85053446 80.98113402 81.2589402 78.60718701 84 75 C67.48577264 74.70628654 51.06767039 74.52756029 34.625 76.3125 Z " fill="#BFCAD5" transform="translate(81,0)"/>
<path d="M0 0 C0.99 1.98 0.99 1.98 2 4 C0.71029297 4.87398437 0.71029297 4.87398437 -0.60546875 5.765625 C-22.5229168 20.86688109 -43.88861438 41.96053233 -54 67 C-54 67.66 -54 68.32 -54 69 C-52.98800537 68.74307373 -51.97601074 68.48614746 -50.93334961 68.22143555 C-47.10422234 67.25036674 -43.27384687 66.28429857 -39.44311523 65.31958008 C-37.79922712 64.90488395 -36.15566038 64.48891132 -34.51245117 64.0715332 C-5.58040639 56.72581698 -5.58040639 56.72581698 2 57 C2.36590746 58.72672034 2.71722195 60.45653655 3.0625 62.1875 C3.25972656 63.15042969 3.45695312 64.11335938 3.66015625 65.10546875 C4.00653408 68.05565232 3.645286 70.12900622 3 73 C1.53125 73.3671875 0.0625 73.734375 -1.40625 74.1015625 C-2.36660156 74.34173096 -3.32695313 74.58189941 -4.31640625 74.8293457 C-6.45948273 75.36495048 -8.60271499 75.89993232 -10.74609375 76.43432617 C-16.38657624 77.84156732 -22.02418419 79.25863252 -27.65625 80.69921875 C-29.25243164 81.10503174 -29.25243164 81.10503174 -30.88085938 81.51904297 C-32.91439751 82.03634094 -34.94700296 82.55732355 -36.97851562 83.08251953 C-58.05940299 88.42538399 -58.05940299 88.42538399 -66.4375 84.3125 C-70.64459177 80.5158562 -72.49372079 76.98380461 -72.8125 71.3125 C-72.61441464 61.62832674 -67.08425536 53.91097827 -62 46 C-61.32453125 44.94554687 -60.6490625 43.89109375 -59.953125 42.8046875 C-56.99211789 38.41558405 -53.8939574 34.60903369 -50 31 C-49.46246094 30.43152344 -48.92492187 29.86304687 -48.37109375 29.27734375 C-38.09211585 18.48334399 -26.12671229 10.84929435 -13 4 C-12.28924316 3.62488281 -11.57848633 3.24976563 -10.84619141 2.86328125 C-10.14026855 2.49847656 -9.4343457 2.13367188 -8.70703125 1.7578125 C-8.06870361 1.42668457 -7.43037598 1.09555664 -6.77270508 0.75439453 C-4.45045422 -0.23386537 -2.48839199 -0.311049 0 0 Z " fill="#44A6DB" transform="translate(72,12)"/>
<path d="M0 0 C1.19625 -0.04576172 2.3925 -0.09152344 3.625 -0.13867188 C12.04675973 -0.24700547 12.04675973 -0.24700547 15.04248047 1.65478516 C16.95641474 3.79771404 18.00358859 5.91198794 18.6484375 8.703125 C18.23611111 14.21527778 18.23611111 14.21527778 17.125 16.4375 C16.18108398 16.45208252 15.23716797 16.46666504 14.26464844 16.48168945 C-10.73402292 16.8959781 -35.14219897 18.53232089 -59.875 22.4375 C-59.875 17.4875 -59.875 12.5375 -59.875 7.4375 C-55.19238364 6.09960961 -51.18521164 5.07125687 -46.453125 4.40234375 C-45.26203125 4.23283203 -44.0709375 4.06332031 -42.84375 3.88867188 C-41.00296875 3.6344043 -41.00296875 3.6344043 -39.125 3.375 C-37.91328125 3.20162109 -36.7015625 3.02824219 -35.453125 2.84960938 C-23.62149767 1.18578678 -11.9501985 0.19041525 0 0 Z " fill="#029FDE" transform="translate(149.875,58.5625)"/>
<path d="M0 0 C0.36590746 1.72672034 0.71722195 3.45653655 1.0625 5.1875 C1.35833984 6.63189453 1.35833984 6.63189453 1.66015625 8.10546875 C2.00423947 11.03610862 1.74164697 13.16307068 1 16 C-16.97483626 21.53832644 -37.24627331 23.11419459 -55 16 C-55.33 14.68 -55.66 13.36 -56 12 C-51.14890559 10.76839901 -46.29656732 9.54185702 -41.44311523 8.31958008 C-39.79922712 7.90488395 -38.15566038 7.48891132 -36.51245117 7.0715332 C-7.58040639 -0.27418302 -7.58040639 -0.27418302 0 0 Z " fill="#039FDD" transform="translate(74,69)"/>
<path d="M0 0 C1.19625 -0.04576172 2.3925 -0.09152344 3.625 -0.13867188 C12.04675973 -0.24700547 12.04675973 -0.24700547 15.04248047 1.65478516 C16.95641474 3.79771404 18.00358859 5.91198794 18.6484375 8.703125 C18.23611111 14.21527778 18.23611111 14.21527778 17.125 16.4375 C16.135 16.4375 15.145 16.4375 14.125 16.4375 C14.125 15.7775 14.125 15.1175 14.125 14.4375 C3.28228667 10.42168025 -7.02956329 9.11295805 -18.5625 9.25 C-19.70082275 9.25644531 -20.83914551 9.26289062 -22.01196289 9.26953125 C-29.53269681 9.3378288 -36.99811836 9.65030902 -44.49609375 10.21484375 C-49.29939004 10.53136154 -54.06311871 10.50433168 -58.875 10.4375 C-58.875 14.3975 -58.875 18.3575 -58.875 22.4375 C-59.205 22.4375 -59.535 22.4375 -59.875 22.4375 C-59.875 17.4875 -59.875 12.5375 -59.875 7.4375 C-55.19238364 6.09960961 -51.18521164 5.07125687 -46.453125 4.40234375 C-45.26203125 4.23283203 -44.0709375 4.06332031 -42.84375 3.88867188 C-41.00296875 3.6344043 -41.00296875 3.6344043 -39.125 3.375 C-37.91328125 3.20162109 -36.7015625 3.02824219 -35.453125 2.84960938 C-23.62149767 1.18578678 -11.9501985 0.19041525 0 0 Z " fill="#43A7DB" transform="translate(149.875,58.5625)"/>
<path d="M0 0 C-0.33 0.99 -0.66 1.98 -1 3 C-5.1243045 3.6503259 -9.2495585 4.29442956 -13.375 4.9375 C-14.53128906 5.11990234 -15.68757813 5.30230469 -16.87890625 5.49023438 C-23.57433614 6.53048478 -30.24824686 7.42207772 -37 8 C-33.65246142 6.10939745 -30.4085623 5.29820937 -26.66015625 4.4921875 C-25.43232422 4.22792969 -24.20449219 3.96367188 -22.93945312 3.69140625 C-21.66005859 3.42199219 -20.38066406 3.15257813 -19.0625 2.875 C-17.78697266 2.59785156 -16.51144531 2.32070312 -15.19726562 2.03515625 C-4.80232066 -0.1779259 -4.80232066 -0.1779259 0 0 Z " fill="#39A5DC" transform="translate(74,69)"/>
</svg>
